#!OML:ASF H:\MichaelJackson\Top Level 1\Subject 1\Session 1\male.ASF
:FULLY-SPECIFIED
:DEGREES
905
root 11.247 17.0366 24.8567 -170.421 194.201 173.801
lowerback 4.19763 1.54202 -2.95063
upperback 1.27598 1.94103 0.981253
thorax -1.17279 0.970843 2.56147
lowerneck -6.0841 -4.04374 -0.372625
upperneck 7.83268 -5.58126 2.17735
head 3.70169 -2.68061 0.496128
rclavicle -2.88238e-014 -1.66979e-014
rhumerus -46.0075 2.68467 -75.7009
rradius 57.1827
rwrist 19.8544
rhand -39.5038 -18.7381
rfingers 7.12502
rthumb -12.4895 -408.345
lclavicle -2.88238e-014 -1.66979e-014
lhumerus -44.993 -3.168 94.0965
lradius 50.502
lwrist 11.8396
lhand -12.0977 7.99875
lfingers 7.12502
lthumb 13.9629 37.5099
rfemur -37.9665 5.63443 -2.23544
rtibia 40.9089
rfoot 20.2218 -2.77016
rtoes 9.3155
lfemur -24.9455 12.5353 -16.327
ltibia 40.5056
lfoot -22.9615 -17.8816
ltoes 6.0019
906
root 11.149 17.0393 24.8934 -170.275 192.877 173.49
lowerback 4.10948 1.17699 -2.70405
upperback 1.13636 1.47046 1.20004
thorax -1.23518 0.738661 2.67432
lowerneck -6.23986 -4.05582 -0.317653
upperneck 7.98945 -5.59692 2.06212
head 3.78149 -2.68878 0.442834
rclavicle 1.98785e-015 -2.54444e-014
rhumerus -46.2555 2.54706 -75.9954
rradius 58.0746
rwrist 19.5994
rhand -39.276 -18.1025
rfingers 7.12502
rthumb -12.2698 -407.723
lclavicle 1.98785e-015 -2.54444e-014
lhumerus -45.1928 -3.04408 94.1771
lradius 50.0782
lwrist 11.6745
lhand -12.5794 8.18584
lfingers 7.12502
lthumb 13.4986 37.7284
rfemur -37.4913 6.63257 -2.66566
rtibia 38.9839
rfoot 20.3379 -2.38716
rtoes 10.4505
lfemur -25.2572 13.8036 -16.3364
ltibia 40.7891
lfoot -23.1454 -15.8801
ltoes 4.2707
907
root 11.0508 17.0372 24.9294 -170.148 191.455 173.17
lowerback 4.04593 0.779257 -2.42658
upperback 0.991529 0.957065 1.43608
thorax -1.31366 0.48496 2.78878
lowerneck -6.37736 -4.07025 -0.264668
upperneck 8.12831 -5.61465 1.94435
head 3.85164 -2.69858 0.38932
rclavicle 4.57205e-015 -8.74653e-015
rhumerus -46.5385 2.39165 -76.2711
rradius 59.0231
rwrist 19.2865
rhand -38.8625 -17.2368
rfingers 7.12502
rthumb -11.8711 -406.88
lclavicle 4.57205e-015 -8.74653e-015
lhumerus -45.4006 -2.94619 94.2767
lradius 49.662
lwrist 11.4872
lhand -13.0438 8.45054
lfingers 7.12502
lthumb 13.051 38.0222
rfemur -37.0145 7.23738 -2.90566
rtibia 37.3135
rfoot 20.6525 -1.71625
rtoes 11.5325
lfemur -25.6652 15.1441 -16.4026
ltibia 41.1431
lfoot -23.2472 -13.8041
ltoes 2.80908
908
root 10.9526 17.0312 24.9641 -170.051 189.942 172.838
lowerback 4.01982 0.353129 -2.12273
upperback 0.845137 0.406625 1.68998
thorax -1.41248 0.21254 2.9082
lowerneck -6.49327 -4.08748 -0.207228
upperneck 8.23614 -5.6352 1.82214
head 3.90644 -2.71042 0.33406
rclavicle -9.14409e-015 7.95139e-016
rhumerus -46.8475 2.21762 -76.5237
rradius 60.0126
rwrist 18.9585
rhand -38.2927 -16.22
rfingers 7.12502
rthumb -11.3216 -405.894
lclavicle -9.14409e-015 7.95139e-016
lhumerus -45.6036 -2.87886 94.3949
lradius 49.2456
lwrist 11.2729
lhand -13.4447 8.76944
lfingers 7.12502
lthumb 12.6645 38.3655
rfemur -36.5253 7.43975 -2.93578
rtibia 35.9147
rfoot 21.1185 -0.917326
rtoes 12.6161
lfemur -26.15 16.4812 -16.5018
ltibia 41.5475
lfoot -23.2542 -11.7419
ltoes 1.80156
909
root 10.8542 17.022 24.9974 -169.995 188.351 172.495
lowerback 4.03285 -0.0904523 -1.80764
upperback 0.704345 -0.166303 1.9641
thorax -1.52645 -0.071492 3.04384
lowerneck -6.58108 -4.1117 -0.149611
upperneck 8.2976 -5.66459 1.70787
head 3.9397 -2.72703 0.28195
rclavicle -2.40529e-014 -3.33958e-014
rhumerus -47.1815 2.00924 -76.739
rradius 61.0355
rwrist 18.6615
rhand -37.6056 -15.1351
rfingers 7.12502
rthumb -10.6589 -404.845
lclavicle -2.40529e-014 -3.33958e-014
lhumerus -45.7782 -2.85377 94.541
lradius 48.8075
lwrist 11.0216
lhand -13.7374 9.11949
lfingers 7.12502
lthumb 12.3823 38.7328
rfemur -36.0098 7.26416 -2.75729
rtibia 34.7924
rfoot 21.6884 -0.137351
rtoes 13.5744
lfemur -26.69 17.7478 -16.6076
ltibia 41.9862
lfoot -23.195 -9.75957
ltoes 1.15554
910
root 10.7555 17.0105 25.0291 -169.988 186.7 172.138
lowerback 4.08989 -0.542749 -1.49083
upperback 0.574218 -0.749914 2.25786
thorax -1.65354 -0.361274 3.20095
lowerneck -6.62904 -4.1473 -0.0993395
upperneck 8.29992 -5.70909 1.61638
head 3.94529 -2.75121 0.239382
rclavicle -3.6477e-014 1.35174e-014
rhumerus -47.528 1.76716 -76.9184
rradius 62.0681
rwrist 18.4192
rhand -36.8495 -14.0635
rfingers 7.12502
rthumb -9.92942 -403.809
lclavicle -3.6477e-014 1.35174e-014
lhumerus -45.9041 -2.87037 94.7133
lradius 48.3286
lwrist 10.7352
lhand -13.9036 9.45888
lfingers 7.12502
lthumb 12.2221 39.0818
rfemur -35.4605 6.76769 -2.38622
rtibia 33.9389
rfoot 22.3066 0.524828
rtoes 14.205
lfemur -27.2544 18.8818 -16.6798
ltibia 42.4451
lfoot -23.1032 -7.92293
ltoes 0.84018
911
root 10.6556 16.9968 25.0589 -170.034 185.013 171.77
lowerback 4.18614 -0.993742 -1.1962
upperback 0.461759 -1.33138 2.57075
thorax -1.78366 -0.650388 3.39282
lowerneck -6.64782 -4.19644 -0.0527822
upperneck 8.24248 -5.77197 1.54682
head 3.92491 -2.78441 0.20514
rclavicle 1.799e-014 -2.06736e-014
rhumerus -47.8739 1.49232 -77.0642
rradius 63.0879
rwrist 18.2355
rhand -36.1079 -13.0452
rfingers 7.12502
rthumb -9.21396 -402.824
lclavicle 1.799e-014 -2.06736e-014
lhumerus -45.9674 -2.92923 94.9133
lradius 47.8082
lwrist 10.4197
lhand -13.9313 9.74462
lfingers 7.12502
lthumb 12.1953 39.3691
rfemur -34.8859 6.04797 -1.87166
rtibia 33.3398
rfoot 22.936 0.95989
rtoes 14.4587
lfemur -27.817 19.8314 -16.6843
ltibia 42.9158
lfoot -23.0117 -6.28348
ltoes 0.677358
912
root 10.5541 16.9814 25.0868 -170.132 183.316 171.401
lowerback 4.31861 -1.4298 -0.945319
upperback 0.368141 -1.89334 2.89508
thorax -1.91343 -0.92993 3.62351
lowerneck -6.64194 -4.26426 -0.00330337
upperneck 8.12989 -5.86123 1.50189
head 3.88107 -2.83016 0.178469
rclavicle -3.53837e-014 3.97569e-014
rhumerus -48.2167 1.17592 -77.1808
rradius 64.0801
rwrist 18.1141
rhand -35.4278 -12.1293
rfingers 7.12502
rthumb -8.55766 -401.936
lclavicle -3.53837e-014 3.97569e-014
lhumerus -45.9593 -3.04047 95.1379
lradius 47.2404
lwrist 10.0941
lhand -13.8428 9.94666
lfingers 7.12502
lthumb 12.2806 39.5661
rfemur -34.2984 5.21201 -1.27406
rtibia 32.9755
rfoot 23.5532 1.15964
rtoes 14.2925
lfemur -28.3561 20.5648 -16.5915
ltibia 43.3915
lfoot -22.9438 -4.91693
ltoes 0.608863
913
root 10.4501 16.9648 25.113 -170.272 181.636 171.044
lowerback 4.47659 -1.84388 -0.765436
upperback 0.295757 -2.42795 3.22508
thorax -2.03255 -1.19576 3.90211
lowerneck -6.63212 -4.35143 0.036375
upperneck 7.97815 -5.97811 1.49533
head 3.82463 -2.8886 0.165357
rclavicle 4.47266e-015 -1.59028e-014
rhumerus -48.5389 0.82592 -77.2766
rradius 65.0241
rwrist 18.0505
rhand -34.8532 -11.3498
rfingers 7.12502
rthumb -8.00309 -401.178
lclavicle 4.47266e-015 -1.59028e-014
lhumerus -45.874 -3.192 95.3795
lradius 46.6314
lwrist 9.76956
lhand -13.6598 10.0519
lfingers 7.12502
lthumb 12.4571 39.6606
rfemur -33.7196 4.36267 -0.659108
rtibia 32.828
rfoot 24.1349 1.1507
rtoes 13.8037
lfemur -28.8617 21.0749 -16.3862
ltibia 43.8703
lfoot -22.9196 -3.88109
ltoes 0.540796
914
root 10.3431 16.9468 25.1378 -170.441 179.996 170.714
lowerback 4.65261 -2.22543 -0.667719
upperback 0.237482 -2.92238 3.5442
thorax -2.14355 -1.44113 4.21699
lowerneck -6.62014 -4.45902 0.0808208
upperneck 7.8026 -6.12557 1.525
head 3.76092 -2.96074 0.162186
rclavicle 2.8128e-014 9.54166e-015
rhumerus -48.8538 0.428048 -77.3689
rradius 65.9141
rwrist 18.0301
rhand -34.4187 -10.7173
rfingers 7.12502
rthumb -7.58374 -400.561
lclavicle 2.8128e-014 9.54166e-015
lhumerus -45.7339 -3.39808 95.6261
lradius 46.006
lwrist 9.46834
lhand -13.4253 10.08
lfingers 7.12502
lthumb 12.6832 39.6748
rfemur -33.1722 3.58489 -0.0856573
rtibia 32.88
rfoot 24.676 1.01466
rtoes 13.1252
lfemur -29.3264 21.3711 -16.0647
ltibia 44.3499
lfoot -22.9563 -3.21015
ltoes 0.365159
915
root 10.2329 16.9274 25.1615 -170.62 178.421 170.42
lowerback 4.82659 -2.56672 -0.660811
upperback 0.191504 -3.36777 3.84579
thorax -2.23637 -1.66155 4.56439
lowerneck -6.62481 -4.5879 0.125281
upperneck 7.62724 -6.30475 1.5907
head 3.70238 -3.04702 0.168785
rclavicle 4.77083e-015 6.36111e-015
rhumerus -49.1534 -0.0127474 -77.4662
rradius 66.7392
rwrist 18.0432
rhand -34.1507 -10.2472
rfingers 7.12502
rthumb -7.32508 -400.1
lclavicle 4.77083e-015 6.36111e-015
lhumerus -45.5508 -3.66296 95.8754
lradius 45.3902
lwrist 9.21763
lhand -13.1987 10.0523
lfingers 7.12502
lthumb 12.9016 39.6335
rfemur -32.6848 2.92743 0.408832
rtibia 33.1156
rfoot 25.1824 0.865463
rtoes 12.4216
lfemur -29.7635 21.5022 -15.6392
ltibia 44.8293
lfoot -23.0583 -2.92359
ltoes 0.0891444
916
root 10.1195 16.9064 25.1847 -170.79 176.932 170.175
lowerback 4.98339 -2.86559 -0.743266
upperback 0.149925 -3.76226 4.11617
thorax -2.31097 -1.856 4.92786
lowerneck -6.64865 -4.73609 0.170833
upperneck 7.47021 -6.51337 1.6915
head 3.65589 -3.14615 0.184374
rclavicle 3.54831e-014 -1.19271e-014
rhumerus -49.4452 -0.493583 -77.5863
rradius 67.4946
rwrist 18.0947
rhand -34.0513 -9.94075
rfingers 7.12502
rthumb -7.22906 -399.797
lclavicle 3.54831e-014 -1.19271e-014
lhumerus -45.3551 -3.98577 96.1141
lradius 44.8165
lwrist 9.03454
lhand -13.0092 10.0129
lfingers 7.12502
lthumb 13.0844 39.5824
rfemur -32.2765 2.40847 0.793957
rtibia 33.5179
rfoot 25.6398 0.797427
rtoes 11.7593
lfemur -30.1859 21.5322 -15.1442
ltibia 45.304
lfoot -23.2281 -3.00904
ltoes -0.288388
917
root 10.0035 16.8838 25.208 -170.939 175.538 169.984
lowerback 5.10517 -3.11929 -0.898543
upperback 0.111681 -4.1023 4.34782
thorax -2.36037 -2.02297 5.28804
lowerneck -6.69398 -4.90025 0.215184
upperneck 7.34242 -6.74664 1.8232
head 3.62567 -3.25583 0.207887
rclavicle -1.75924e-014 -1.51076e-014
rhumerus -49.7337 -1.01242 -77.7371
rradius 68.1846
rwrist 18.1737
rhand -34.1094 -9.79206
rfingers 7.12502
rthumb -7.28512 -399.647
lclavicle -1.75924e-014 -1.51076e-014
lhumerus -45.1662 -4.37256 96.337
lradius 44.313
lwrist 8.92224
lhand -12.8861 9.99364
lfingers 7.12502
lthumb 13.203 39.5556
rfemur -31.9501 2.00914 1.06553
rtibia 34.0635
rfoot 26.0123 0.901197
rtoes 11.1112
lfemur -30.6056 21.5315 -14.6128
ltibia 45.7683
lfoot -23.4592 -3.42128
ltoes -0.78545
918
root 9.88576 16.859 25.2319 -171.062 174.245 169.844
lowerback 5.18583 -3.33353 -1.09619
upperback 0.0735775 -4.39419 4.53346
thorax -2.38726 -2.1659 5.61925
lowerneck -6.75406 -5.07579 0.257425
upperneck 7.25091 -6.99775 1.97649
head 3.61258 -3.37303 0.236772
rclavicle 5.51627e-014 -1.07344e-014
rhumerus -50.0175 -1.55102 -77.9326
rradius 68.8038
rwrist 18.2778
rhand -34.3165 -9.78688
rfingers 7.12502
rthumb -7.48506 -399.634
lclavicle 5.51627e-014 -1.07344e-014
lhumerus -45.0089 -4.81432 96.5313
lradius 43.9061
lwrist 8.88018
lhand -12.8408 10.0228
lfingers 7.12502
lthumb 13.2466 39.5819
rfemur -31.6949 1.68439 1.23306
rtibia 34.7224
rfoot 26.2597 1.20538
rtoes 10.3845
lfemur -31.0247 21.5609 -14.0786
ltibia 46.2129
lfoot -23.7464 -4.09466
ltoes -1.29722
919
root 9.76751 16.8324 25.2567 -171.157 173.05 169.759
lowerback 5.21816 -3.51406 -1.31525
upperback 0.0368262 -4.64449 4.6714
thorax -2.38856 -2.28842 5.90681
lowerneck -6.8361 -5.25648 0.290676
upperneck 7.20263 -7.257 2.13861
head 3.62017 -3.4934 0.268128
rclavicle 3.37934e-014 2.5842e-014
rhumerus -50.2937 -2.09245 -78.172
rradius 69.3559
rwrist 18.4103
rhand -34.6433 -9.91154
rfingers 7.12502
rthumb -7.80049 -399.748
lclavicle 3.37934e-014 2.5842e-014
lhumerus -44.8908 -5.30554 96.6967
lradius 43.6051
lwrist 8.88772
lhand -12.8648 10.1201
lfingers 7.12502
lthumb 13.2235 39.6807
rfemur -31.4879 1.38659 1.30319
rtibia 35.4583
rfoot 26.3484 1.71313
rtoes 9.33962
lfemur -31.4417 21.6581 -13.5791
ltibia 46.6282
lfoot -24.0778 -4.94649
ltoes -1.78859
